# xmcd
#
# Track frame offsets:
#	150
#	14025
#	36156
#	59808
#	69982
#	86270
#	112362
#	125935
#	145916
#	162762
#	181110
#	196879
#	222602
#	250014
#	260397
#
# Disc length: 3667 seconds
#
# Revision: 0
# Processed by: cddbd v1.5.2PL0 Copyright (c) Steve Scherf et al.
# Submitted via: EasyCDDAExtractor 4.6.9.1
#
DISCID=e50e510f
DTITLE=Ika Kraicova (Romanika) - Vlcie Balady
DYEAR=2008
DGENRE=
TTITLE0=Ako nador
TTITLE1=Balonga
TTITLE2=Bazovica
TTITLE3=Baubo
TTITLE4=Saguara
TTITLE5=Bludicka
TTITLE6=Divoska
TTITLE7=Labutia balada
TTITLE8=La Loba
TTITLE9=Moj mily
TTITLE10=Motylia zena
TTITLE11=Obojzivelna
TTITLE12=Piesen pre anjela
TTITLE13=Sny
TTITLE14=Vlcia balada
EXTD=www.aerosolart.sk
EXTT0=
EXTT1=
EXTT2=
EXTT3=
EXTT4=
EXTT5=
EXTT6=
EXTT7=
EXTT8=
EXTT9=
EXTT10=
EXTT11=
EXTT12=
EXTT13=
EXTT14=
PLAYORDER=
